<?xml version="1.0" standalone="no"?>
<!DOCTYPE svg PUBLIC "-//W3C//DTD SVG 20010904//EN"
 "http://www.w3.org/TR/2001/REC-SVG-20010904/DTD/svg10.dtd">
<svg version="1.0" xmlns="http://www.w3.org/2000/svg"
 width="640.000000pt" height="480.000000pt" viewBox="0 0 640.000000 480.000000"
 preserveAspectRatio="xMidYMid meet">

<g transform="translate(0.000000,480.000000) scale(0.100000,-0.100000)"
fill="#000000" stroke="none">
<path d="M2881 4599 c-818 -123 -1498 -698 -1761 -1486 -266 -799 -74 -1655
509 -2266 580 -608 1472 -824 2281 -551 141 48 362 157 490 242 118 79 289
218 319 261 96 134 2 321 -162 321 -66 0 -87 -11 -194 -101 -370 -313 -796
-455 -1286 -427 -387 21 -765 182 -1072 455 -115 102 -140 135 -126 161 5 9
214 345 465 746 l456 730 0 -400 c0 -433 5 -480 56 -595 46 -102 155 -179 254
-179 44 0 132 30 175 60 97 67 155 148 460 640 l300 485 6 -300 c6 -302 10
-337 50 -445 59 -160 175 -297 306 -362 192 -96 417 -87 610 23 128 74 262
234 316 379 51 135 62 211 61 415 -1 335 -62 622 -196 919 -312 692 -972 1184
-1716 1280 -170 22 -440 20 -601 -5z m669 -419 c679 -138 1227 -668 1390
-1343 38 -159 50 -263 51 -444 0 -120 -3 -160 -19 -210 -53 -169 -162 -260
-298 -251 -83 5 -137 42 -176 118 -43 84 -48 138 -48 472 0 336 -9 414 -56
515 -30 62 -88 124 -146 155 -35 18 -59 23 -128 23 -100 0 -148 -19 -240 -96
-85 -71 -150 -163 -425 -608 l-250 -404 -5 519 c-6 514 -6 520 -29 583 -33 90
-96 154 -175 176 -103 30 -192 0 -280 -96 -32 -35 -248 -371 -576 -897 l-525
-842 -42 88 c-54 112 -106 271 -135 414 -20 99 -23 142 -23 353 1 222 3 249
28 366 152 714 704 1266 1407 1409 203 41 497 41 700 0z"/>
</g>
</svg>
