<?xml version="1.0" standalone="no"?>
<!DOCTYPE svg PUBLIC "-//W3C//DTD SVG 20010904//EN"
 "http://www.w3.org/TR/2001/REC-SVG-20010904/DTD/svg10.dtd">
<svg version="1.0" xmlns="http://www.w3.org/2000/svg"
 width="512.000000pt" height="512.000000pt" viewBox="0 0 512.000000 512.000000"
 preserveAspectRatio="xMidYMid meet">

<g transform="translate(0.000000,512.000000) scale(0.100000,-0.100000)"
fill="#000000" stroke="none">
<path d="M4490 4420 c-14 -4 -632 -240 -1375 -525 -742 -284 -1660 -636 -2039
-781 -412 -157 -699 -272 -713 -286 -31 -29 -47 -86 -39 -134 16 -81 21 -83
598 -278 443 -149 530 -176 547 -166 12 6 180 108 374 227 2149 1317 2102
1290 2102 1227 0 -11 -144 -151 -386 -374 -212 -195 -631 -581 -930 -857
l-545 -501 -32 -459 c-36 -502 -36 -516 -22 -542 15 -29 64 -45 92 -30 12 7
150 136 305 288 156 152 287 277 292 279 6 2 243 -173 528 -389 285 -216 534
-402 553 -412 76 -40 186 -8 239 68 17 25 105 413 391 1711 204 923 370 1691
370 1707 0 60 -24 111 -75 162 -67 68 -153 91 -235 65z"/>
</g>
</svg>
