<?xml version="1.0" encoding="UTF-8"?>
<svg version="1.1" xmlns="http://www.w3.org/2000/svg" width="400" height="400">
<path d="M0 0 C2.46793658 -0.00135288 4.93587291 -0.00329854 7.40380859 -0.00579834 C12.53681007 -0.00872037 17.66974119 -0.00454728 22.80273438 0.00488281 C29.31401168 0.01627541 35.82512398 0.00970009 42.33639526 -0.00226212 C47.42082923 -0.00956042 52.50522541 -0.00715662 57.58966064 -0.00200653 C59.98773214 -0.00069195 62.38580731 -0.0022388 64.78387451 -0.00696564 C76.58749136 -0.02513784 88.31496909 0.14856124 100.08203125 1.14160156 C101.43640793 1.25462427 101.43640793 1.25462427 102.81814575 1.36993027 C128.81551197 3.82645978 152.25126203 13.1868267 169.625 33.265625 C182.63884874 50.51712391 186.97690545 70.22349026 188.625 91.265625 C188.70795319 92.31123093 188.79090637 93.35683685 188.87637329 94.43412781 C189.72968746 106.42774527 189.78880999 118.39012482 189.79296875 130.41015625 C189.79619365 132.63189209 189.79955857 134.85362773 189.80305481 137.07536316 C189.80900813 141.7155303 189.81089879 146.35567893 189.81030273 150.99584961 C189.8102217 155.69771185 189.81713288 160.39947619 189.83081055 165.10131836 C190.11277938 263.46293205 190.11277938 263.46293205 164.9921875 289.89453125 C164.21101563 290.67699219 163.42984375 291.45945312 162.625 292.265625 C161.86445313 293.03777344 161.10390625 293.80992187 160.3203125 294.60546875 C151.47038647 303.09269289 141.3694151 308.60519778 129.875 312.578125 C129.22208984 312.80846436 128.56917969 313.03880371 127.89648438 313.27612305 C109.80149936 319.09633482 91.09027382 318.71707479 72.314888 318.66860151 C68.38358479 318.66089305 64.45230036 318.66808101 60.52099609 318.67276001 C53.92476571 318.67818555 47.32863678 318.67111089 40.73242188 318.65673828 C33.1558411 318.64041797 25.5795027 318.64570876 18.00292778 318.6622175 C11.44435522 318.67592452 4.88585471 318.67770746 -1.67272758 318.66990149 C-5.5664656 318.66527513 -9.4600905 318.66445833 -13.3538208 318.67451096 C-47.01486265 318.74943837 -76.5482993 315.36073002 -102 291.015625 C-129.48484432 263.37027146 -128.52998141 221.92388148 -128.54296875 185.71484375 C-128.54619503 183.56419352 -128.54956004 181.41354349 -128.55305481 179.26289368 C-128.55900308 174.77413425 -128.56089932 170.28539394 -128.56030273 165.79663086 C-128.56022172 161.25394691 -128.56713103 156.71136434 -128.58081055 152.16870117 C-128.8210563 71.12407273 -128.8210563 71.12407273 -117.375 48.265625 C-116.74851562 46.90630859 -116.74851562 46.90630859 -116.109375 45.51953125 C-107.15595362 27.38113449 -89.68101561 14.13621593 -70.953125 7.390625 C-47.90198432 0.14310479 -23.96067997 -0.04722901 0 0 Z M-78.375 51.265625 C-107.04563836 80.83222081 -95.82180315 149.40594437 -95.34179688 186.85614014 C-96.09683184 228.30116464 -96.09683184 228.30116464 -78.875 264.453125 C-63.41284871 278.94889183 -40.66337936 280.41890732 -20.63012695 280.41088867 C-19.40576431 280.41424728 -18.18140167 280.4176059 -16.91993713 280.42106628 C-13.59315484 280.42888309 -10.26643501 280.4322406 -6.93964791 280.43288207 C-4.85145256 280.4335978 -2.76326357 280.43574194 -0.67506981 280.43837929 C6.63776686 280.44760381 13.95058544 280.45171791 21.26342773 280.45092773 C28.03494412 280.45032806 34.80638056 280.46086577 41.57787675 280.4766714 C47.42883473 280.48983215 53.27976687 280.49510807 59.13073951 280.49447232 C62.60867468 280.49421979 66.08653869 280.49693345 69.56445885 280.50765038 C107.5791802 281.14607869 107.5791802 281.14607869 140.4375 264.140625 C169.8463639 232.78519945 157.40095842 156.41771159 156.3671875 117.15429688 C155.96977741 81.66674299 155.96977741 81.66674299 139.84375 51.17578125 C113.33696948 28.35568323 69.35167172 35.10003226 36.97167969 35.13525391 C31.68728556 35.14095071 26.40294176 35.1375624 21.11854935 35.13182068 C-31.53313346 32.04942761 -31.53313346 32.04942761 -78.375 51.265625 Z " fill="#000000" transform="translate(169.375,40.734375)"/>
<path d="M0 0 C2.23323438 1.66020763 4.29131872 3.40301727 6.34765625 5.27734375 C7.16621094 6.004375 7.98476562 6.73140625 8.828125 7.48046875 C24.37473083 22.06276167 32.31396078 42.28611098 33.34765625 63.34765625 C33.34765625 86.4049816 24.93368995 106.89070449 9.16015625 123.59375 C-6.72144164 138.51194213 -27.17279546 145.81223196 -48.75390625 145.25195312 C-70.16557846 144.19790362 -89.2428337 134.47137566 -103.83984375 119.02734375 C-117.85746214 102.48195811 -124.83003264 81.86830666 -123.65234375 60.27734375 C-121.96647804 42.11694219 -115.92196794 25.93156094 -103.65234375 12.27734375 C-102.82734375 11.35824219 -102.00234375 10.43914062 -101.15234375 9.4921875 C-74.1096719 -19.0834265 -31.97281688 -20.76585014 0 0 Z M-80.8984375 37.8203125 C-83.89130027 42.01298662 -85.87394701 46.46055257 -87.65234375 51.27734375 C-88.02166016 52.27701172 -88.02166016 52.27701172 -88.3984375 53.296875 C-91.64276704 63.92485108 -89.98548737 75.24739072 -85.65234375 85.27734375 C-83.61062335 88.89078455 -81.29726343 92.0842249 -78.65234375 95.27734375 C-78.1521875 95.91285156 -77.65203125 96.54835938 -77.13671875 97.203125 C-71.73933967 103.35014006 -61.85154546 108.99814499 -53.65234375 110.27734375 C-39.2853064 111.19695475 -28.28253544 109.36481292 -16.65234375 100.27734375 C-16.03617187 99.79910156 -15.42 99.32085937 -14.78515625 98.828125 C-6.66454745 91.66394346 -1.34011998 79.44150231 -0.44140625 68.7734375 C0.0467066 55.5756169 -4.08706478 43.54761912 -12.98046875 33.69921875 C-23.19998323 23.99389368 -34.23159076 19.69361655 -48.21484375 19.96875 C-61.71432037 21.18063483 -72.26358734 27.5806013 -80.8984375 37.8203125 Z " fill="#000000" transform="translate(244.65234375,137.72265625)"/>
<path d="M0 0 C4.97792525 5.73215634 6.81874263 11.05815749 6.51171875 18.69140625 C5.52364904 24.59404877 2.56565178 28.20254161 -2.0625 31.8125 C-6.67401488 34.31875809 -10.74750719 35.03301695 -15.9375 34.375 C-21.82505241 32.48102634 -25.49244131 29.44126277 -28.9375 24.375 C-31.57212135 19.10575731 -31.20238405 14.00281746 -29.9375 8.375 C-27.05913058 2.82385897 -23.5209972 -0.48826123 -17.8125 -3 C-11.50341713 -4.01759401 -5.61297461 -3.10504978 0 0 Z " fill="#000000" transform="translate(295.9375,109.625)"/>
</svg>
